The.Sorcerer.and.the.White.Snake.2011.720p.2Audio.x264.AAC-anoXmous

Format                           : MPEG-4
Format profile                   : Base Media
Codec ID                         : isom
File size                        : 803 MiB
Duration                         : 1h 42mn
Overall bit rate mode            : Variable
Overall bit rate                 : 1 099 Kbps


Video
ID                               : 1
Format                           : AVC
Format/Info                      : Advanced Video Codec
Format profile                   : High@L4.1
Format settings, CABAC           : Yes
Format settings, ReFrames        : 4 frames
Codec ID                         : avc1
Codec ID/Info                    : Advanced Video Coding
Duration                         : 1h 42mn
Bit rate                         : 955 Kbps
Maximum bit rate                 : 6 817 Kbps
Width                            : 1 280 pixels
Height                           : 536 pixels
Display aspect ratio             : 2.40:1
Frame rate mode                  : Constant
Frame rate                       : 24.000 fps
Color space                      : YUV
Chroma subsampling               : 4:2:0
Bit depth                        : 8 bits
Scan type                        : Progressive
Bits/(Pixel*Frame)               : 0.058
Stream size                      : 697 MiB (87%)
Writing library                  : x264 core 120 r2120 0c7dab9

Audio #1
ID                               : 2
Format                           : AAC
Format/Info                      : Advanced Audio Codec
Format profile                   : LC
Codec ID                         : 40
Duration                         : 1h 42mn
Bit rate mode                    : Variable
Bit rate                         : 70.4 Kbps
Maximum bit rate                 : 89.4 Kbps
Channel(s)                       : 2 channels
Channel positions                : Front: L R
Sampling rate                    : 48.0 KHz 
Compression mode                 : Lossy
Stream size                      : 51.4 MiB (6%)
Language                         : Chinese -- Mandarin


Audio #2
ID                               : 3
Format                           : AAC
Format/Info                      : Advanced Audio Codec
Format profile                   : LC
Codec ID                         : 40
Duration                         : 1h 42mn
Bit rate mode                    : Variable
Bit rate                         : 70.2 Kbps
Maximum bit rate                 : 88.5 Kbps
Channel(s)                       : 2 channels
Channel positions                : Front: L R
Sampling rate                    : 48.0 KHz 
Compression mode                 : Lossy
Stream size                      : 51.3 MiB (6%)
Language                         : Chinese -- Cantonese

                              SUB:
The.Sorcerer.and.the.White.Snake.2011.720p.2Audio.x264.AAC-anoXmous_eng.srt
The.Sorcerer.and.the.White.Snake.2011.720p.2Audio.x264.AAC-anoXmous_swe.srt

                http://www.imdb.com/title/tt1857913/
				
      +++++++++ This work very fine with PSP and XBOX :) ++++++++++				
				